<svg xmlns="http://www.w3.org/2000/svg" width="32" height="32" viewBox="0 0 24 24" fill="none" stroke="#F5A623" stroke-width="2" stroke-linecap="round" stroke-linejoin="round">
  <!-- Cat head and ears (from Lucide Cat icon style) -->
  <path d="M12 5c.67 0 1.35.09 2 .26 1.78-2 5.03-2.1 6.27-.46.7 1.07.68 2.97-.1 4.2.58 1.05.9 2.25.83 3.5-.17 3.08-2.77 5.54-5.8 5.5H8.8C5.77 18.04 3.17 15.58 3 12.5c-.07-1.25.25-2.45.83-3.5-.78-1.23-.8-3.13-.1-4.2C4.97 3.16 8.22 3.26 10 5.26 10.65 5.09 11.33 5 12 5z"/>
  <!-- Eyes -->
  <circle cx="9" cy="12" r="1" fill="#F5A623"/>
  <circle cx="15" cy="12" r="1" fill="#F5A623"/>
  <!-- Nose -->
  <path d="M10 15.5c.5.3 1 .5 2 .5s1.5-.2 2-.5" stroke="#F5A623" stroke-width="1.5"/>
</svg>
